<svg xmlns="http://www.w3.org/2000/svg" viewBox="0 0 36 36" role="img" aria-label="Vehicle accident incident">
  <path
    d="M3 18l3-5h9l2 5v5H3v-5zM6 23a2.5 2.5 0 1 0 0 5 2.5 2.5 0 0 0 0-5zM13 23a2.5 2.5 0 1 0 0 5 2.5 2.5 0 0 0 0-5z"
    fill="#0891B2"
    stroke="white"
    stroke-width="3"
    paint-order="stroke"
  />
  <path
    d="M33 18l-3-5h-9l-2 5v5h14v-5zM30 23a2.5 2.5 0 1 0 0 5 2.5 2.5 0 0 0 0-5zM23 23a2.5 2.5 0 1 0 0 5 2.5 2.5 0 0 0 0-5z"
    fill="#0891B2"
    stroke="white"
    stroke-width="3"
    paint-order="stroke"
  />
  <path d="M16 9l2 6h-4l2-6zM20 9l-2 6h4l-2-6z" fill="#0891B2" stroke="white" stroke-width="2" paint-order="stroke" />
</svg>
