<svg xmlns="http://www.w3.org/2000/svg" viewBox="0 0 64 64" role="img" aria-label="Vehicle fire incident">
  <circle cx="32" cy="32" r="29" fill="#F7FAFC" stroke="#102A43" stroke-width="3" />
  <path
    d="M30 17c3 4 7 6 7 12 0 4-3 7-7 7s-7-3-7-7c0-4 2-7 4-9 1 2 3 3 3 3z"
    fill="#D64541"
  />
  <path d="M31 24c1 1 3 3 3 6 0 2-2 4-4 4-2 0-4-2-4-4 0-2 1-4 3-5l1 2z" fill="#F08C00" />
  <path d="M20 34l6-8h12l6 8z" fill="#718096" stroke="#102A43" stroke-width="3" stroke-linejoin="round" />
  <rect x="16" y="34" width="32" height="10" rx="3" fill="#718096" stroke="#102A43" stroke-width="3" />
  <circle cx="24" cy="46" r="4" fill="#102A43" />
  <circle cx="40" cy="46" r="4" fill="#102A43" />
</svg>
